<svg xmlns="http://www.w3.org/2000/svg" width="200" height="300" viewBox="0 0 200 300"><rect width="100%" height="100%" fill="#e5e5e5"/><path fill="#737373" d="M53.705 139.515h3.43v20.97h-2q-.46 0-.77-.15t-.6-.52l-10.95-13.98q.09.96.09 1.77v12.88h-3.44v-20.97h2.04q.25 0 .43.02.18.03.32.09.14.07.27.19t.29.33l10.99 14.03q-.04-.51-.07-1t-.03-.91zm14.12 5.86q1.65 0 3.01.54 1.36.53 2.32 1.52t1.49 2.41q.52 1.42.52 3.17 0 1.77-.52 3.19-.53 1.42-1.49 2.42t-2.32 1.54-3.01.54q-1.67 0-3.03-.54t-2.33-1.54q-.96-1-1.49-2.42t-.53-3.19q0-1.75.53-3.17t1.49-2.41q.97-.99 2.33-1.52 1.36-.54 3.03-.54m0 12.57q1.86 0 2.75-1.24.89-1.25.89-3.66t-.89-3.67-2.75-1.26q-1.88 0-2.79 1.27t-.91 3.66.91 3.65q.91 1.25 2.79 1.25m32.09-2.4q.32 0 .57.24l1.53 1.67q-1.27 1.58-3.14 2.42-1.86.84-4.47.84-2.33 0-4.2-.8-1.86-.79-3.18-2.21-1.32-1.43-2.02-3.4-.71-1.97-.71-4.3 0-2.37.76-4.33.75-1.97 2.12-3.39t3.27-2.21 4.21-.79q2.29 0 4.06.75 1.78.76 3.03 1.98l-1.31 1.81q-.11.17-.3.3-.18.13-.5.13-.21 0-.45-.12-.23-.12-.5-.3-.28-.18-.64-.4t-.84-.4-1.11-.31q-.63-.12-1.46-.12-1.4 0-2.57.5t-2.01 1.45-1.31 2.32q-.46 1.37-.46 3.13 0 1.77.5 3.14.5 1.38 1.36 2.32.85.95 2.01 1.45t2.5.5q.79 0 1.44-.09.64-.09 1.19-.28.54-.19 1.03-.48.48-.3.96-.73.15-.14.31-.21.16-.08.33-.08m10.8-10.17q1.66 0 3.01.54 1.36.53 2.32 1.52.97.99 1.49 2.41t.52 3.17q0 1.77-.52 3.19t-1.49 2.42q-.96 1-2.32 1.54-1.35.54-3.01.54-1.67 0-3.03-.54t-2.33-1.54q-.96-1-1.49-2.42t-.53-3.19q0-1.75.53-3.17t1.49-2.41q.97-.99 2.33-1.52 1.36-.54 3.03-.54m0 12.57q1.86 0 2.75-1.24.89-1.25.89-3.66t-.89-3.67-2.75-1.26q-1.88 0-2.79 1.27t-.91 3.66.91 3.65q.91 1.25 2.79 1.25m20.66-12.34h2.83l-5.9 14.88h-3.25l-5.9-14.88h2.96q.41 0 .67.19.27.19.36.48l2.87 7.95q.23.69.41 1.36.17.67.3 1.33.15-.66.32-1.33t.42-1.36l2.93-7.95q.1-.29.36-.48t.62-.19m7.56 5.73h6.76q0-.7-.2-1.31-.2-.62-.59-1.08-.39-.47-.99-.73-.6-.27-1.4-.27-1.55 0-2.44.88-.89.89-1.14 2.51m9.13 2.16h-9.2q.08 1.15.4 1.98t.84 1.38q.53.54 1.24.81.72.27 1.59.27t1.5-.21q.63-.2 1.1-.44.48-.25.83-.45.36-.21.69-.21.45 0 .67.34l1.03 1.3q-.6.7-1.34 1.17t-1.54.75q-.81.29-1.64.4-.83.12-1.62.12-1.55 0-2.88-.52-1.34-.51-2.32-1.52-.99-1.01-1.55-2.49-.57-1.49-.57-3.45 0-1.52.49-2.86.5-1.34 1.42-2.34.92-.99 2.24-1.57 1.33-.58 3-.58 1.4 0 2.59.45t2.05 1.31q.85.87 1.34 2.12t.49 2.86q0 .82-.18 1.1-.17.28-.67.28m6.69-6.99.22 1.68q.69-1.33 1.65-2.09t2.26-.76q1.03 0 1.65.45l-.23 2.68q-.07.26-.21.37t-.37.11q-.22 0-.64-.07-.43-.08-.84-.08-.59 0-1.06.18-.46.17-.83.5-.37.32-.65.79-.28.46-.53 1.06v9.16h-3.58v-14.88h2.1q.55 0 .77.2.22.19.29.7"/></svg>